HIERARCHY
ROOT Hips
{
	OFFSET 0.000000 0.000000 0.000000
	CHANNELS 6 Xposition Yposition Zposition Xrotation Yrotation Zrotation
	JOINT LeftUpLeg_virtual
	{
		OFFSET 0.000000 0.000000 0.000000
		CHANNELS 3 Xrotation Yrotation Zrotation
		JOINT LeftUpLeg
		{
			OFFSET 15.427100 -6.655098 0.678600
			CHANNELS 3 Xrotation Yrotation Zrotation
			JOINT LeftLeg
			{
				OFFSET 4.081073 -39.591068 13.024000
				CHANNELS 3 Xrotation Yrotation Zrotation
				JOINT LeftFoot
				{
					OFFSET -4.081074 -37.707932 -15.979700
					CHANNELS 3 Xrotation Yrotation Zrotation
					JOINT LeftToeBase
					{
						OFFSET 5.346399 -15.068900 20.645000
						CHANNELS 3 Xrotation Yrotation Zrotation
						JOINT LeftToe_End
						{
							OFFSET 2.754700 0.931300 11.300900
							CHANNELS 3 Xrotation Yrotation Zrotation
							End Site
							{
								OFFSET 0 0 0
							}
						}
					}
				}
			}
		}
	}
	JOINT RightUpLeg_virtual
	{
		OFFSET 0.000000 0.000000 0.000000
		CHANNELS 3 Xrotation Yrotation Zrotation
		JOINT RightUpLeg
		{
			OFFSET -15.569500 -6.655098 0.678600
			CHANNELS 3 Xrotation Yrotation Zrotation
			JOINT RightLeg
			{
				OFFSET -4.081825 -39.591045 13.023800
				CHANNELS 3 Xrotation Yrotation Zrotation
				JOINT RightFoot
				{
					OFFSET 4.081824 -37.707954 -15.979600
					CHANNELS 3 Xrotation Yrotation Zrotation
					JOINT RightToeBase
					{
						OFFSET -5.346400 -15.068900 20.645000
						CHANNELS 3 Xrotation Yrotation Zrotation
						JOINT RightToe_End
						{
							OFFSET -2.754700 0.931300 11.300900
							CHANNELS 3 Xrotation Yrotation Zrotation
							End Site
							{
								OFFSET 0 0 0
							}
						}
					}
				}
			}
		}
	}
	JOINT Spine_virtual
	{
		OFFSET 0.000000 0.000000 0.000000
		CHANNELS 3 Xrotation Yrotation Zrotation
		JOINT Spine
		{
			OFFSET -0.279200 12.230698 -2.892100
			CHANNELS 3 Xrotation Yrotation Zrotation
			JOINT Spine1
			{
				OFFSET -0.232667 10.192268 -1.242267
				CHANNELS 3 Xrotation Yrotation Zrotation
				JOINT Spine1_split
				{
					OFFSET -0.232667 10.192268 -1.242267
					CHANNELS 3 Xrotation Yrotation Zrotation
					JOINT Spine2
					{
						OFFSET -0.232667 10.192268 -1.242267
						CHANNELS 3 Xrotation Yrotation Zrotation
						JOINT Neck_virtual
						{
							OFFSET 0.000000 0.000000 0.000000
							CHANNELS 3 Xrotation Yrotation Zrotation
							JOINT Neck
							{
								OFFSET -0.418800 17.814194 8.416900
								CHANNELS 3 Xrotation Yrotation Zrotation
								JOINT Head
								{
									OFFSET 0.000000 7.031097 3.806800
									CHANNELS 3 Xrotation Yrotation Zrotation
									JOINT HeadTop_End
									{
										OFFSET 0.000000 24.646606 12.978600
										CHANNELS 3 Xrotation Yrotation Zrotation
										End Site
										{
											OFFSET 0 0 0
										}
									}
								}
							}
						}
						JOINT LeftShoulder_virtual
						{
							OFFSET 0.000000 0.000000 0.000000
							CHANNELS 3 Xrotation Yrotation Zrotation
							JOINT LeftShoulder
							{
								OFFSET 8.476499 7.247704 -3.868750
								CHANNELS 3 Xrotation Yrotation Zrotation
								JOINT LeftShoulder_split
								{
									OFFSET 8.476499 7.247704 -3.868750
									CHANNELS 3 Xrotation Yrotation Zrotation
									JOINT LeftArm
									{
										OFFSET 9.308998 -2.777710 0.208600
										CHANNELS 3 Xrotation Yrotation Zrotation
										JOINT LeftForeArm
										{
											OFFSET 29.972298 0.000000 0.000000
											CHANNELS 3 Xrotation Yrotation Zrotation
											JOINT LeftHand
											{
												OFFSET 26.026505 0.000000 0.000000
												CHANNELS 3 Xrotation Yrotation Zrotation
												End Site
												{
													OFFSET 0 0 0
												}
											}
										}
									}
								}
							}
						}
						JOINT RightShoulder_virtual
						{
							OFFSET 0.000000 0.000000 0.000000
							CHANNELS 3 Xrotation Yrotation Zrotation
							JOINT RightShoulder
							{
								OFFSET -7.570500 7.247704 -3.868750
								CHANNELS 3 Xrotation Yrotation Zrotation
								JOINT RightShoulder_split
								{
									OFFSET -7.570500 7.247704 -3.868750
									CHANNELS 3 Xrotation Yrotation Zrotation
									JOINT RightArm
									{
										OFFSET -9.308998 -2.777710 0.208500
										CHANNELS 3 Xrotation Yrotation Zrotation
										JOINT RightForeArm
										{
											OFFSET -29.972300 0.000000 0.000000
											CHANNELS 3 Xrotation Yrotation Zrotation
											JOINT RightHand
											{
												OFFSET -26.026505 0.000000 0.000000
												CHANNELS 3 Xrotation Yrotation Zrotation
												End Site
												{
													OFFSET 0 0 0
												}
											}
										}
									}
								}
							}
						}
					}
				}
			}
		}
	}
}
MOTION
Frames: 6
Frame Time: 0.03333333
0.899884 71.126877 -13.415489 0.000000 0.000000 0.000000 4.003259 -63.489900 3.876444 -40.085195 16.351411 53.448392 30.694249 -17.000496 -4.541667 14.885245 14.657682 -38.493768 -4.338607 -6.602538 -6.415834 0.000000 0.000000 0.000000 3.326493 -62.636516 3.208094 -29.734286 6.343084 -25.944366 46.715782 20.839056 -6.920384 -14.955719 -12.296529 37.606461 6.724644 8.156509 -8.336209 0.000000 0.000000 0.000000 4.932397 -56.025829 3.391075 1.588995 2.082081 2.937494 3.935688 0.220776 -2.298003 0.141192 -0.507564 0.107831 0.000000 0.000000 0.000000 7.091981 2.839825 -1.339421 -22.789244 26.653323 17.672519 15.974119 -16.610673 -14.103196 0.000000 0.000000 0.000000 6.492188 0.180566 -1.370373 2.606051 -2.195905 -6.601448 2.072713 -6.507729 -4.063536 -56.502361 -11.746026 -13.024929 7.063278 -17.773838 9.174647 0.000000 0.000000 0.000000 4.557988 -0.237625 -1.469234 -3.112409 12.429165 2.756998 14.458208 1.162194 8.445921 8.626988 68.031006 7.087993 140.470162 80.321508 -140.738671 0.000000 0.000000 0.000000 
0.910240 71.129601 -13.279392 0.000000 0.000000 0.000000 4.690874 -63.296866 4.198098 -39.205740 16.218337 53.559133 31.286392 -17.723366 -4.422555 13.860623 14.972410 -38.208065 -4.460274 -6.654426 -6.189512 0.000000 0.000000 0.000000 3.265340 -62.101897 3.083453 -30.087383 6.542952 -25.855259 46.138085 20.927087 -6.564182 -14.619410 -12.228466 37.778743 6.207356 8.296197 -8.374743 0.000000 0.000000 0.000000 5.042248 -56.112552 3.608211 1.208757 2.000938 3.012401 3.486320 0.021161 -2.327468 0.058602 -0.464427 0.112790 0.000000 0.000000 0.000000 6.761314 2.435214 -1.099494 -21.750302 27.299096 17.525731 16.005474 -16.949589 -16.014681 0.000000 0.000000 0.000000 5.764679 0.047843 -1.432881 2.585688 -1.372894 -8.380569 3.030914 -5.542940 -3.429053 -55.958603 -11.888496 -14.417337 8.225886 -18.074088 9.798135 0.000000 0.000000 0.000000 4.146884 -0.475133 -1.605799 -3.171433 12.310157 2.577828 15.112781 -0.796415 7.949299 6.666449 67.748578 9.674848 143.204123 80.273239 -143.710705 0.000000 0.000000 0.000000 
0.782900 71.362869 -13.218102 0.000000 0.000000 0.000000 5.084555 -63.441905 4.353153 -38.119231 16.147412 53.489400 31.709150 -18.095598 -4.179175 13.298773 15.638046 -38.695269 -4.498803 -6.603162 -6.443325 0.000000 0.000000 0.000000 3.441561 -62.096467 3.112106 -30.660296 6.562625 -25.710019 45.304279 20.945217 -6.055547 -14.080508 -11.710862 37.428433 6.706502 8.417004 -8.496028 0.000000 0.000000 0.000000 4.731882 -56.963573 3.353811 0.784142 2.037032 3.271115 3.167588 -0.245699 -2.264588 0.082011 -0.509269 0.092088 0.000000 0.000000 0.000000 6.407626 1.919664 -0.799853 -20.369943 27.982829 17.599514 13.756178 -14.609553 -20.231720 0.000000 0.000000 0.000000 4.876860 -0.203714 -1.490528 2.412072 -0.984041 -10.884282 3.560910 -4.899520 -1.658633 -53.378540 -11.207272 -16.634388 8.871334 -19.409157 9.951874 0.000000 0.000000 0.000000 3.790843 -0.744945 -1.610303 -3.299364 11.083674 2.467317 14.138923 -1.337776 7.651513 7.973909 67.777921 9.812899 139.104193 81.876073 -139.519687 0.000000 0.000000 0.000000 
0.538333 71.884941 -13.142208 0.000000 0.000000 0.000000 5.096290 -63.923085 4.320444 -36.567733 16.270177 52.856003 31.274593 -17.874105 -3.912846 13.167935 16.678052 -39.556627 -4.972572 -6.462456 -6.900171 0.000000 0.000000 0.000000 3.610866 -62.530081 3.191492 -31.103674 6.324771 -25.610370 44.284536 20.709253 -5.527076 -13.598741 -11.045647 36.640529 8.022753 8.500199 -8.669523 0.000000 0.000000 0.000000 4.063282 -58.235122 2.733085 0.518697 2.159619 3.603002 3.025358 -0.585011 -2.088266 0.172183 -0.559828 0.094750 0.000000 0.000000 0.000000 5.998520 1.344389 -0.515465 -18.736008 28.512205 17.670963 10.022474 -10.074302 -25.518036 0.000000 0.000000 0.000000 4.086199 -0.550676 -1.565310 2.155528 -1.308627 -13.731549 3.939413 -4.759350 0.811408 -48.992824 -10.361597 -19.573830 9.429262 -23.005636 9.988516 0.000000 0.000000 0.000000 3.541440 -1.019577 -1.486826 -3.502335 8.973281 2.732734 12.373540 -0.317473 7.166221 11.068802 67.878010 9.092384 119.642484 84.657422 -119.597172 0.000000 0.000000 0.000000 
0.183211 72.727013 -12.915508 0.000000 0.000000 0.000000 4.847603 -64.394402 4.185395 -34.309881 16.725497 51.401237 29.822436 -16.925361 -3.466988 13.126617 18.263504 -40.177536 -5.767481 -6.289717 -7.479680 0.000000 0.000000 0.000000 3.393842 -63.055207 3.147362 -31.073778 5.800035 -25.638749 43.096602 20.138673 -5.108205 -12.988496 -10.453401 35.843723 8.732265 8.619996 -8.824983 0.000000 0.000000 0.000000 2.988755 -59.406636 1.810555 0.585171 2.286728 3.857523 3.071400 -1.010221 -1.817596 0.225594 -0.608472 0.122964 0.000000 0.000000 0.000000 5.540239 0.743212 -0.271140 -16.790770 28.846156 17.468882 5.808448 -4.512806 -30.336237 0.000000 0.000000 0.000000 3.526754 -0.990160 -1.687023 1.797180 -2.552580 -16.369197 5.231223 -4.793493 3.135574 -42.833482 -9.995801 -22.752823 10.422446 -29.108764 10.275669 0.000000 0.000000 0.000000 3.417962 -1.280700 -1.260252 -3.776937 6.185419 3.509342 10.742638 1.376732 6.440123 14.474771 67.978578 8.528832 52.678022 85.051059 -51.841153 0.000000 0.000000 0.000000 
-0.178426 73.788353 -12.725544 0.000000 0.000000 0.000000 4.462726 -64.515112 4.047898 -31.991885 17.182278 49.371736 27.620474 -15.573292 -2.669591 13.286088 19.774957 -40.842742 -6.241470 -6.110519 -8.141443 0.000000 0.000000 0.000000 3.134819 -63.278977 3.204302 -30.290250 5.128408 -25.741059 41.758298 19.226926 -4.846526 -12.076084 -10.103540 35.402493 8.167992 8.810237 -8.925495 0.000000 0.000000 0.000000 1.884262 -60.108854 0.992560 1.018727 2.308688 3.895333 3.247625 -1.517286 -1.484091 0.222092 -0.701221 0.091437 0.000000 0.000000 0.000000 5.093891 0.132298 -0.090728 -14.546682 28.941670 16.867378 1.308973 0.712486 -33.512450 0.000000 0.000000 0.000000 3.296720 -1.515008 -1.844951 1.369811 -4.523580 -18.175950 6.848087 -4.609937 4.863693 -35.925811 -11.411393 -25.610194 12.377596 -37.399309 11.231338 0.000000 0.000000 0.000000 3.460974 -1.560175 -0.947254 -4.065764 3.100353 4.945075 9.261187 2.605174 5.343149 16.780334 67.915344 9.030981 17.522603 78.569387 -15.616777 0.000000 0.000000 0.000000 
